<svg width="19" height="15" viewBox="0 0 19 15" fill="none" xmlns="http://www.w3.org/2000/svg">
<path d="M9.50059 0.375C13.7693 0.375 17.3207 3.44667 18.0656 7.5C17.3215 11.5533 13.7693 14.625 9.50059 14.625C5.23192 14.625 1.68051 11.5533 0.935547 7.5C1.67971 3.44667 5.23192 0.375 9.50059 0.375ZM9.50059 13.0417C11.1152 13.0413 12.6818 12.4929 13.9441 11.4862C15.2064 10.4795 16.0896 9.07405 16.449 7.5C16.0882 5.9272 15.2045 4.52334 13.9423 3.51794C12.6802 2.51254 11.1142 1.96508 9.50059 1.96508C7.88693 1.96508 6.32101 2.51254 5.05885 3.51794C3.79668 4.52334 2.91295 5.9272 2.55213 7.5C2.91162 9.07405 3.79479 10.4795 5.05708 11.4862C6.31937 12.4929 7.88601 13.0413 9.50059 13.0417ZM9.50059 11.0625C8.55576 11.0625 7.64962 10.6872 6.98152 10.0191C6.31342 9.35097 5.93809 8.44483 5.93809 7.5C5.93809 6.55517 6.31342 5.64903 6.98152 4.98093C7.64962 4.31283 8.55576 3.9375 9.50059 3.9375C10.4454 3.9375 11.3516 4.31283 12.0197 4.98093C12.6878 5.64903 13.0631 6.55517 13.0631 7.5C13.0631 8.44483 12.6878 9.35097 12.0197 10.0191C11.3516 10.6872 10.4454 11.0625 9.50059 11.0625ZM9.50059 9.47917C10.0255 9.47917 10.5289 9.27065 10.9001 8.89948C11.2712 8.52832 11.4798 8.02491 11.4798 7.5C11.4798 6.97509 11.2712 6.47168 10.9001 6.10052C10.5289 5.72935 10.0255 5.52083 9.50059 5.52083C8.97568 5.52083 8.47227 5.72935 8.10111 6.10052C7.72994 6.47168 7.52142 6.97509 7.52142 7.5C7.52142 8.02491 7.72994 8.52832 8.10111 8.89948C8.47227 9.27065 8.97568 9.47917 9.50059 9.47917Z" fill="#E0BEA2"/>
</svg>
