<?xml version="1.0" encoding="utf-8"?><svg viewBox="0 0 159 51" xmlns="http://www.w3.org/2000/svg" xmlns:xlink="http://www.w3.org/1999/xlink"><style>:root>svg{display:none}:root>svg:target{display:block}</style><svg fill='#ffffff' viewBox="0 0 159 40" id="YANKI" xmlns="http://www.w3.org/2000/svg"><path d="M4.338 0l13.07 21.521L30.591 0h4.282L19.38 25.127V40h-3.943V25.014L0 0h4.338zM48.747 0h3.324l16.62 40h-4.169l-5.183-12.507H41.367L36.24 40h-4.225L48.747 0zm9.69 24.394L50.382 4.62l-8.169 19.774h16.225zM78.369 7.268V40h-3.944V0h3.268l26.253 33.352V.056h3.944V40h-3.662L78.368 7.268zM117.944 40V.056h3.944v23.212L143.916 0h4.338l-16.338 17.578L149.099 40h-4.451l-15.267-20.056-7.493 7.774V40h-3.944zM154.146 40V0h3.943v40h-3.943z" fill="#fff"/></svg>
<svg viewBox="0 0 11 7" id="arrow" xmlns="http://www.w3.org/2000/svg"><path d="M5.019 3.889L8.908 0l1.11 1.11-5 5-5-5L1.13 0l3.889 3.889z"/></svg>
<svg fill='none' viewBox="0 0 11 7" id="arrowBlack" xmlns="http://www.w3.org/2000/svg"><path d="M5.019 3.889L8.908 0l1.11 1.11-5 5-5-5L1.13 0l3.889 3.889z" fill='#000'/></svg>
<svg fill='none' viewBox="0 0 11 7" id="arrowBrown" xmlns="http://www.w3.org/2000/svg"><path d="M5.019 3.889L8.908 0l1.11 1.11-5 5-5-5L1.13 0l3.889 3.889z" fill='#E0BEA2'/></svg>
<svg  viewBox="0 0 25 25" id="basket" xmlns="http://www.w3.org/2000/svg"><g clip-path="url(#cclip0_499_34)"><path d="M3.817 5.48L0 1.666 1.665 0l3.816 3.817h17.937a1.177 1.177 0 011.128 1.514l-2.825 9.415a1.177 1.177 0 01-1.127.84H6.17v2.353h12.946v2.354H4.993a1.177 1.177 0 01-1.176-1.177V5.48zm2.353.69v7.061h13.548l2.119-7.06H6.17zM5.582 25a1.766 1.766 0 110-3.531 1.766 1.766 0 010 3.531zm14.122 0a1.765 1.765 0 110-3.53 1.765 1.765 0 010 3.53z"/></g><defs><clipPath id="cclip0_499_34"><path d="M0 0h25v25H0z"/></clipPath></defs></svg><svg fill="none" viewBox="0 0 34 24" id="catalog" xmlns="http://www.w3.org/2000/svg"><path fill="#fff" d="M0 0h34v4H0zM0 10h26v4H0zM0 20h18v4H0z"/></svg><svg fill="none" viewBox="0 0 25 25" id="clear" xmlns="http://www.w3.org/2000/svg"><path d="M18.75 5H25v2.5h-2.5v16.25A1.25 1.25 0 0121.25 25H3.75a1.25 1.25 0 01-1.25-1.25V7.5H0V5h6.25V1.25A1.25 1.25 0 017.5 0h10a1.25 1.25 0 011.25 1.25V5zM20 7.5H5v15h15v-15zM8.75 11.25h2.5v7.5h-2.5v-7.5zm5 0h2.5v7.5h-2.5v-7.5zm-5-8.75V5h7.5V2.5h-7.5z" fill="#E0BEA2"/></svg><svg fill="none" viewBox="0 0 19 15" id="eye" xmlns="http://www.w3.org/2000/svg"><path d="M9.5.375A8.712 8.712 0 0118.067 7.5a8.711 8.711 0 01-17.13 0A8.711 8.711 0 019.5.375zm0 12.667A7.13 7.13 0 0016.45 7.5a7.129 7.129 0 00-13.897 0 7.129 7.129 0 006.949 5.542zm0-1.98a3.562 3.562 0 110-7.124 3.562 3.562 0 010 7.124zm0-1.583a1.98 1.98 0 100-3.958 1.98 1.98 0 000 3.958z" fill="#E0BEA2"/></svg><svg viewBox="0 0 25 25" id="favorits" xmlns="http://www.w3.org/2000/svg"><path d="M12.501 3.161c2.936-2.636 7.474-2.549 10.302.285a7.5 7.5 0 01.295 10.295l-10.6 10.615L1.902 13.74a7.5 7.5 0 0110.6-10.58zm8.532 2.051a4.997 4.997 0 00-6.862-.19l-1.669 1.497-1.67-1.497a4.999 4.999 0 00-6.867.193 4.999 4.999 0 00-.24 6.813l8.775 8.79 8.775-8.788a5 5 0 00-.242-6.818z"/></svg><svg fill="none" viewBox="0 0 17 17" id="instagram" xmlns="http://www.w3.org/2000/svg"><path d="M8.5 6.125a2.375 2.375 0 100 4.75 2.375 2.375 0 000-4.75zm0-1.583a3.959 3.959 0 110 7.917 3.959 3.959 0 010-7.917zm5.146-.198a.99.99 0 11-1.98 0 .99.99 0 011.98 0zM8.5 2.167c-1.959 0-2.278.005-3.19.046-.62.029-1.037.112-1.423.262a2.285 2.285 0 00-.855.557c-.248.24-.438.532-.557.855-.15.388-.234.804-.262 1.423-.042.874-.046 1.18-.046 3.19 0 1.959.005 2.278.046 3.19.029.62.112 1.037.262 1.422.134.345.293.592.555.855.267.266.515.425.855.557.391.151.808.235 1.425.264.874.04 1.18.045 3.19.045 1.959 0 2.278-.005 3.19-.046.619-.029 1.036-.112 1.422-.262.343-.133.592-.293.855-.555.267-.267.426-.515.558-.855.15-.39.234-.808.262-1.425.042-.874.046-1.18.046-3.19 0-1.959-.005-2.278-.046-3.19-.029-.619-.112-1.037-.262-1.423a2.304 2.304 0 00-.557-.855 2.283 2.283 0 00-.855-.557c-.388-.15-.804-.234-1.423-.262-.874-.042-1.18-.046-3.19-.046zm0-1.584c2.151 0 2.42.008 3.263.048s1.417.172 1.922.368a3.86 3.86 0 011.403.913c.403.396.714.874.913 1.403.196.504.329 1.079.368 1.922.037.844.048 1.112.048 3.263s-.008 2.42-.048 3.263-.172 1.417-.368 1.922a3.865 3.865 0 01-.913 1.403 3.89 3.89 0 01-1.403.913c-.504.196-1.079.329-1.922.368-.844.037-1.112.048-3.263.048s-2.42-.008-3.263-.048-1.417-.172-1.922-.368a3.87 3.87 0 01-1.403-.913 3.882 3.882 0 01-.913-1.402c-.196-.505-.329-1.08-.368-1.923C.594 10.92.583 10.651.583 8.5c0-2.15.008-2.42.048-3.263.04-.844.172-1.417.368-1.922.198-.53.51-1.008.913-1.403A3.877 3.877 0 013.315.999C3.82.803 4.393.67 5.237.631 6.08.594 6.349.583 8.5.583z" fill="#E0BEA2"/></svg><svg fill="none" viewBox="0 0 45 50" id="pay-icon-1" xmlns="http://www.w3.org/2000/svg"><g clip-path="url(#iclip0_406_589)"><path d="M9.432 0v7.571L34.272 25 9.432 42.429V50L45 25 9.432 0z" fill="#E0BEA2"/><path d="M0 7.357v35.215L25.056 25 0 7.357z" fill="#E0BEA2"/><path d="M6.492 29c-.559-.007-1.055-.132-1.487-.374a3.374 3.374 0 01-1.084-.957 4.532 4.532 0 01-.66-1.277 4.607 4.607 0 01-.213-1.354c0-.469.079-.939.235-1.408.157-.47.384-.895.682-1.276.306-.39.671-.697 1.096-.925a2.909 2.909 0 011.431-.352c.574 0 1.074.125 1.499.374.432.25.794.572 1.084.968.291.397.507.826.649 1.288.149.462.223.906.223 1.331 0 .477-.078.95-.234 1.42a4.126 4.126 0 01-.694 1.266c-.298.381-.66.69-1.084.924A3.1 3.1 0 016.492 29zm-1.89-3.962c.008.309.049.617.124.925.082.3.197.58.346.836.157.257.354.466.593.627.238.155.514.232.827.232.336 0 .623-.085.861-.254.239-.168.433-.385.582-.649.156-.264.272-.546.346-.847a3.458 3.458 0 00-.011-1.783 2.772 2.772 0 00-.358-.847 1.894 1.894 0 00-.592-.616 1.408 1.408 0 00-.828-.242c-.328 0-.611.084-.85.253a2.087 2.087 0 00-.592.649 3.611 3.611 0 00-.447 1.717zM15.652 27.558v1.332h-4.495v-1.332H12.7v-5.083c-.06.088-.16.187-.302.297-.134.102-.29.205-.47.308-.171.095-.35.176-.536.242a1.433 1.433 0 01-.492.099v-1.365c.201 0 .406-.051.615-.154A3.798 3.798 0 0012.7 21h1.532v6.558h1.42z" fill="#fff"/></g><defs><clipPath id="iclip0_406_589"><path fill="#fff" d="M0 0h45v50H0z"/></clipPath></defs></svg><svg fill="none" viewBox="0 0 45 50" id="pay-icon-2" xmlns="http://www.w3.org/2000/svg"><g clip-path="url(#jclip0_406_602)"><path d="M9.432 0v7.571L34.272 25 9.432 42.429V50L45 25 9.432 0z" fill="#E0BEA2"/><path d="M0 7.357v35.215L25.056 25 0 7.357z" fill="#E0BEA2"/><path d="M5.467 29c-.558-.007-1.052-.132-1.483-.373a3.365 3.365 0 01-1.082-.955c-.29-.395-.51-.82-.658-1.273a4.594 4.594 0 01-.212-1.35c0-.468.078-.936.234-1.404.157-.468.383-.893.68-1.273a3.45 3.45 0 011.093-.922c.424-.234.9-.351 1.428-.351.572 0 1.07.124 1.494.373.431.249.792.57 1.082.966.29.395.505.823.646 1.284.149.46.223.903.223 1.327 0 .476-.078.948-.234 1.416-.156.46-.386.882-.691 1.262-.298.38-.658.688-1.082.922A3.092 3.092 0 015.467 29zm-1.885-3.95c.008.307.049.614.123.921.082.3.197.578.346.834a2 2 0 00.59.626c.238.153.513.23.826.23.334 0 .62-.084.858-.252.238-.168.432-.384.58-.648a3.12 3.12 0 00.346-.845 3.448 3.448 0 00-.011-1.778 2.765 2.765 0 00-.357-.844 1.888 1.888 0 00-.591-.615 1.405 1.405 0 00-.825-.241c-.327 0-.61.084-.848.252a2.081 2.081 0 00-.59.647 3.602 3.602 0 00-.446 1.712zM9.84 28.89c0-.446.03-.837.089-1.174.06-.344.152-.647.279-.91.134-.271.305-.51.513-.714a4.1 4.1 0 01.77-.582c.26-.146.527-.289.802-.428.283-.139.543-.285.78-.439.246-.153.443-.329.592-.526.156-.198.234-.44.234-.725 0-.22-.049-.406-.145-.56a.897.897 0 00-.402-.373 1.354 1.354 0 00-.624-.131c-.283 0-.546.051-.792.154a2.768 2.768 0 00-.647.362 3.943 3.943 0 00-.48.417l-.936-.966c.104-.117.246-.249.424-.395a4.145 4.145 0 012.62-.9c.58 0 1.067.102 1.461.307.394.198.692.472.892.823.209.344.313.743.313 1.197 0 .329-.056.621-.168.877-.104.25-.249.469-.435.659-.186.19-.394.362-.624.516-.23.146-.468.289-.714.428a12.98 12.98 0 00-.936.537 4.124 4.124 0 00-.57.428 1.814 1.814 0 00-.311.395 3.208 3.208 0 00-.179.395h3.948v1.328H9.84z" fill="#fff"/></g><defs><clipPath id="jclip0_406_602"><path fill="#fff" d="M0 0h45v50H0z"/></clipPath></defs></svg><svg fill="none" viewBox="0 0 45 51" id="pay-icon-3" xmlns="http://www.w3.org/2000/svg"><g clip-path="url(#kclip0_406_606)"><path d="M9.432 0v7.694l24.84 17.71-24.84 17.709v7.694L45 25.402 9.432 0z" fill="#E0BEA2"/><path d="M0 7.476v35.782l25.056-17.855L0 7.476z" fill="#E0BEA2"/><path d="M5.467 29.468c-.558-.008-1.052-.134-1.483-.38a3.382 3.382 0 01-1.082-.97 4.62 4.62 0 01-.658-1.293 4.737 4.737 0 01-.212-1.372c0-.475.078-.951.234-1.427.157-.476.383-.907.68-1.293.305-.394.67-.707 1.093-.937.424-.238.9-.357 1.428-.357.572 0 1.07.127 1.494.38.431.252.792.58 1.082.98.29.402.505.837.646 1.305.149.469.223.918.223 1.35 0 .483-.078.962-.234 1.438a4.201 4.201 0 01-.691 1.282 3.534 3.534 0 01-1.082.937c-.424.23-.903.35-1.438.357zm-1.885-4.015c.008.313.049.625.123.937.082.305.197.587.346.848.156.26.353.472.59.635.238.156.513.234.826.234.334 0 .62-.085.858-.256.238-.171.432-.39.58-.658.156-.268.272-.554.346-.859a3.557 3.557 0 00-.011-1.806 2.835 2.835 0 00-.357-.859 1.907 1.907 0 00-.591-.624 1.389 1.389 0 00-.825-.246c-.327 0-.61.086-.848.257s-.435.39-.59.658a3.715 3.715 0 00-.446 1.74zM12.416 29.434c-.424 0-.81-.052-1.16-.156a2.974 2.974 0 01-.903-.468 2.387 2.387 0 01-.602-.736l.803-1.015c.074.164.193.324.356.48.164.156.368.282.614.379.245.096.524.145.836.145.305 0 .569-.045.792-.134.223-.09.394-.212.513-.368a.938.938 0 00.19-.591.893.893 0 00-.235-.624c-.149-.172-.372-.302-.67-.39-.296-.09-.66-.135-1.092-.135h-.368v-1.115h.39c.536 0 .963-.093 1.283-.278.327-.186.49-.45.49-.792a.867.867 0 00-.167-.535.985.985 0 00-.446-.346 1.506 1.506 0 00-.613-.123c-.372 0-.703.09-.993.268a1.744 1.744 0 00-.646.669l-.97-1.082c.163-.238.386-.438.669-.602a3.75 3.75 0 01.947-.401 4.206 4.206 0 011.104-.145c.528 0 .996.093 1.405.279.41.178.729.423.96.736.23.312.345.669.345 1.07 0 .297-.063.569-.19.814-.118.245-.29.45-.512.613a2.206 2.206 0 01-.792.357c.327.052.613.175.858.368.253.186.446.424.58.714.142.282.212.59.212.925 0 .469-.134.866-.401 1.193-.26.327-.617.58-1.07.759a4.056 4.056 0 01-1.517.267z" fill="#fff"/></g><defs><clipPath id="kclip0_406_606"><path fill="#fff" d="M0 0h45v50.806H0z"/></clipPath></defs></svg>
<svg viewBox="0 0 25 25" id="profile" xmlns="http://www.w3.org/2000/svg"><g clip-path="url(#lclip0_499_28)"><path d="M2.5 25a9.524 9.524 0 0119.048 0h-2.381A7.143 7.143 0 004.88 25H2.5zm9.524-10.714A7.14 7.14 0 014.88 7.143 7.14 7.14 0 0112.024 0a7.14 7.14 0 017.143 7.143 7.14 7.14 0 01-7.143 7.143zm0-2.381a4.76 4.76 0 004.762-4.762 4.76 4.76 0 00-4.762-4.762 4.76 4.76 0 00-4.762 4.762 4.76 4.76 0 004.762 4.762z" /></g><defs><clipPath id="lclip0_499_28"><path d="M0 0h25v25H0z"/></clipPath></defs></svg>
<svg fill="none" viewBox="0 0 25 25" id="personalBrown" xmlns="http://www.w3.org/2000/svg"><g clip-path="url(#lclip0_499_28)"><path d="M2.5 25a9.524 9.524 0 0119.048 0h-2.381A7.143 7.143 0 004.88 25H2.5zm9.524-10.714A7.14 7.14 0 014.88 7.143 7.14 7.14 0 0112.024 0a7.14 7.14 0 017.143 7.143 7.14 7.14 0 01-7.143 7.143zm0-2.381a4.76 4.76 0 004.762-4.762 4.76 4.76 0 00-4.762-4.762 4.76 4.76 0 00-4.762 4.762 4.76 4.76 0 004.762 4.762z" fill="#E0BEA2"/></g><defs><clipPath id="lclip0_499_28"><path fill="#fff" d="M0 0h25v25H0z"/></clipPath></defs></svg>
<svg viewBox="0 0 25 25" id="search" xmlns="http://www.w3.org/2000/svg"><g clip-path="url(#mclip0_499_24)"><path d="M19.729 17.989L25 23.259 23.259 25l-5.27-5.271a11.026 11.026 0 01-6.913 2.423C4.962 22.152 0 17.19 0 11.076 0 4.962 4.962 0 11.076 0c6.114 0 11.076 4.962 11.076 11.076a11.026 11.026 0 01-2.423 6.913zm-2.469-.913a8.587 8.587 0 002.43-6 8.612 8.612 0 00-8.614-8.615 8.612 8.612 0 00-8.615 8.615 8.612 8.612 0 008.615 8.615 8.587 8.587 0 006-2.43l.184-.185z"/></g><defs><clipPath id="mclip0_499_24"><path fill="#fff" d="M0 0h25v25H0z"/></clipPath></defs></svg><svg fill="none" viewBox="0 0 19 19" id="telegram" xmlns="http://www.w3.org/2000/svg"><path d="M9.5 15.833a6.334 6.334 0 100-12.667 6.334 6.334 0 000 12.667zm0 1.584a7.917 7.917 0 110-15.833 7.917 7.917 0 010 15.833zm-2.462-6.99L5.06 9.81c-.427-.131-.43-.426.096-.637l7.705-2.977c.448-.182.701.049.556.626l-1.312 6.19c-.091.442-.357.547-.725.343l-2.02-1.494-.94.909c-.097.093-.176.173-.324.193-.148.02-.27-.024-.36-.27l-.689-2.272-.01.005z" fill="#E0BEA2"/></svg><svg fill="none" viewBox="0 0 30 30" id="trade-icon-1" xmlns="http://www.w3.org/2000/svg"><g clip-path="url(#oclip0_389_663)"><path d="M13.682 0l14.277 2.04L30 16.32 16.74 29.578a1.442 1.442 0 01-2.04 0L.422 15.298a1.442 1.442 0 010-2.039L13.682 0zm4.079 12.24a2.883 2.883 0 004.924-2.041 2.884 2.884 0 10-4.924 2.04z" fill="#E0BEA2"/></g><defs><clipPath id="oclip0_389_663"><path fill="#fff" d="M0 0h30v30H0z"/></clipPath></defs></svg><svg fill="none" viewBox="0 0 30 30" id="trade-icon-2" xmlns="http://www.w3.org/2000/svg"><path d="M15 30C6.715 30 0 23.285 0 15S6.715 0 15 0s15 6.715 15 15-6.715 15-15 15zm1.5-15V7.5h-3V18h9v-3h-6z" fill="#E0BEA2"/></svg><svg fill="none" viewBox="0 0 30 30" id="trade-icon-3" xmlns="http://www.w3.org/2000/svg"><path d="M20 0c.789 0 1.429.64 1.429 1.429v1.427l7.142.001v8.572l-2.885-.002 3.952 10.852a5.714 5.714 0 11-10.886 3.436h-6.075a5.717 5.717 0 01-11.142-.326A2.854 2.854 0 010 22.857v-7.143h12.857c0 .733.552 1.337 1.262 1.42l.167.009h2.857c.732 0 1.336-.552 1.419-1.262l.01-.167V2.857h-4.286V0H20zM7.143 21.429a2.857 2.857 0 100 5.714 2.857 2.857 0 000-5.714zm17.143 0a2.857 2.857 0 100 5.714 2.857 2.857 0 000-5.714zM11.429 2.857c.789 0 1.428.64 1.428 1.429v10H0v-10c0-.79.64-1.429 1.429-1.429h10zm14.285 2.857H21.43v2.857h4.285V5.714zM10 5.714H2.857v1.429H10V5.714z" fill="#E0BEA2"/></svg><svg fill="none" viewBox="0 0 30 30" id="trade-icon-4" xmlns="http://www.w3.org/2000/svg"><path d="M27 30H3a1.5 1.5 0 01-1.5-1.5v-27A1.5 1.5 0 013 0h24a1.5 1.5 0 011.5 1.5v27A1.5 1.5 0 0127 30zM9 7.5v3h12v-3H9zm0 6v3h12v-3H9zm0 6v3h7.5v-3H9z" fill="#E0BEA2"/></svg><svg fill="none" viewBox="0 0 30 30" id="trade-icon-5" xmlns="http://www.w3.org/2000/svg"><path d="M15 30C6.715 30 0 23.285 0 15S6.715 0 15 0s15 6.715 15 15-6.715 15-15 15zM9.75 18v3h3.75v3h3v-3H18a3.75 3.75 0 100-7.5h-6a.75.75 0 110-1.5h8.25V9H16.5V6h-3v3H12a3.75 3.75 0 100 7.5h6a.75.75 0 110 1.5H9.75z" fill="#E0BEA2"/></svg><svg fill="none" viewBox="0 0 30 30" id="trade-icon-6" xmlns="http://www.w3.org/2000/svg"><path d="M30 12.333v13.334c0 .353-.158.692-.44.942A1.6 1.6 0 0128.5 27h-27a1.6 1.6 0 01-1.06-.39c-.282-.25-.44-.59-.44-.943V12.333h30zm0-2.666H0V4.333c0-.353.158-.692.44-.942A1.6 1.6 0 011.5 3h27c.398 0 .78.14 1.06.39.282.25.44.59.44.943v5.334zM19.5 20.333V23h6v-2.667h-6z" fill="#E0BEA2"/></svg></svg>
